# xmcd CD database file
#
# Track frame offsets:
#	213
#	23441
#	45714
#	61307
#	88420
#
# Disc length: 1393 seconds
#
# Revision: 1
# Processed by: cddbd v1.4PL0 Copyright (c) Steve Scherf et al.
# Submitted via: CDex 1.50Beta7
#
DISCID=38056f05
DTITLE=Various Artist - Verve's got SOUL
DYEAR=2003
DGENRE=Jazz
TTITLE0=Lizz Wright - Open Yours Eyes, You Can Fly
TTITLE1=The RH Factor - How I Know
TTITLE2=Lizz Wright - Salt
TTITLE3=The RH Factor - Common Free Styles
TTITLE4=Denzal Sinclaire - How Glad I Am
EXTD=YEAR: 2003
EXTT0=
EXTT1=
EXTT2=
EXTT3=
EXTT4=
PLAYORDER=
